<mxfile host="app.diagrams.net" modified="2023-06-09T10:13:33.990Z" agent="Mozilla/5.0 (Windows NT 10.0; Win64; x64) AppleWebKit/537.36 (KHTML, like Gecko) Chrome/114.0.0.0 Safari/537.36 Edg/114.0.1823.41" etag="tvAIw1zFkqvcympY_dAh" version="21.3.2" type="github" pages="4">
  <diagram name="第 1 页" id="up6MtyzCdio118Tdt4Zb">
    <mxGraphModel dx="1379" dy="788" grid="0" gridSize="10" guides="1" tooltips="1" connect="1" arrows="1" fold="1" page="0" pageScale="1" pageWidth="827" pageHeight="1169" math="0" shadow="0">
      <root>
        <mxCell id="0" />
        <mxCell id="1" parent="0" />
        <mxCell id="-M9sDMD61Mh83nTU1GNv-3" style="edgeStyle=orthogonalEdgeStyle;rounded=0;orthogonalLoop=1;jettySize=auto;html=1;exitX=0.5;exitY=1;exitDx=0;exitDy=0;entryX=0.5;entryY=0;entryDx=0;entryDy=0;" parent="1" source="-M9sDMD61Mh83nTU1GNv-1" target="-M9sDMD61Mh83nTU1GNv-2" edge="1">
          <mxGeometry relative="1" as="geometry" />
        </mxCell>
        <mxCell id="-M9sDMD61Mh83nTU1GNv-1" value="&lt;font style=&quot;font-size: 18px;&quot;&gt;开始&lt;/font&gt;" style="rounded=0;whiteSpace=wrap;html=1;" parent="1" vertex="1">
          <mxGeometry x="201" y="134" width="120" height="60" as="geometry" />
        </mxCell>
        <mxCell id="-M9sDMD61Mh83nTU1GNv-4" style="edgeStyle=orthogonalEdgeStyle;rounded=0;orthogonalLoop=1;jettySize=auto;html=1;exitX=1;exitY=0.5;exitDx=0;exitDy=0;entryX=0.5;entryY=0;entryDx=0;entryDy=0;" parent="1" source="-M9sDMD61Mh83nTU1GNv-2" target="-M9sDMD61Mh83nTU1GNv-6" edge="1">
          <mxGeometry relative="1" as="geometry">
            <mxPoint x="343" y="602" as="targetPoint" />
            <Array as="points">
              <mxPoint x="372" y="296" />
              <mxPoint x="372" y="655" />
              <mxPoint x="261" y="655" />
            </Array>
          </mxGeometry>
        </mxCell>
        <mxCell id="-M9sDMD61Mh83nTU1GNv-7" style="edgeStyle=orthogonalEdgeStyle;rounded=0;orthogonalLoop=1;jettySize=auto;html=1;exitX=0.5;exitY=1;exitDx=0;exitDy=0;" parent="1" source="-M9sDMD61Mh83nTU1GNv-2" target="-M9sDMD61Mh83nTU1GNv-9" edge="1">
          <mxGeometry relative="1" as="geometry">
            <mxPoint x="261" y="393" as="targetPoint" />
          </mxGeometry>
        </mxCell>
        <mxCell id="-M9sDMD61Mh83nTU1GNv-2" value="是否到达目标状态" style="rhombus;whiteSpace=wrap;html=1;" parent="1" vertex="1">
          <mxGeometry x="170.5" y="256" width="181" height="80" as="geometry" />
        </mxCell>
        <mxCell id="-M9sDMD61Mh83nTU1GNv-5" value="YES" style="text;html=1;align=center;verticalAlign=middle;resizable=0;points=[];autosize=1;strokeColor=none;fillColor=none;" parent="1" vertex="1">
          <mxGeometry x="335" y="297" width="42" height="26" as="geometry" />
        </mxCell>
        <mxCell id="-M9sDMD61Mh83nTU1GNv-6" value="结束" style="rounded=0;whiteSpace=wrap;html=1;" parent="1" vertex="1">
          <mxGeometry x="201" y="677" width="120" height="60" as="geometry" />
        </mxCell>
        <mxCell id="-M9sDMD61Mh83nTU1GNv-8" value="NO" style="text;html=1;align=center;verticalAlign=middle;resizable=0;points=[];autosize=1;strokeColor=none;fillColor=none;" parent="1" vertex="1">
          <mxGeometry x="264" y="344" width="36" height="26" as="geometry" />
        </mxCell>
        <mxCell id="-M9sDMD61Mh83nTU1GNv-10" style="edgeStyle=orthogonalEdgeStyle;rounded=0;orthogonalLoop=1;jettySize=auto;html=1;exitX=0.5;exitY=1;exitDx=0;exitDy=0;" parent="1" source="-M9sDMD61Mh83nTU1GNv-9" target="-M9sDMD61Mh83nTU1GNv-11" edge="1">
          <mxGeometry relative="1" as="geometry">
            <mxPoint x="261" y="505.60003662109375" as="targetPoint" />
          </mxGeometry>
        </mxCell>
        <mxCell id="-M9sDMD61Mh83nTU1GNv-9" value="获取当前层数并更新层数" style="rounded=0;whiteSpace=wrap;html=1;" parent="1" vertex="1">
          <mxGeometry x="201" y="387" width="120" height="60" as="geometry" />
        </mxCell>
        <mxCell id="-M9sDMD61Mh83nTU1GNv-12" style="edgeStyle=orthogonalEdgeStyle;rounded=0;orthogonalLoop=1;jettySize=auto;html=1;exitX=0.5;exitY=1;exitDx=0;exitDy=0;" parent="1" source="-M9sDMD61Mh83nTU1GNv-11" target="-M9sDMD61Mh83nTU1GNv-13" edge="1">
          <mxGeometry relative="1" as="geometry">
            <mxPoint x="261" y="578" as="targetPoint" />
          </mxGeometry>
        </mxCell>
        <mxCell id="-M9sDMD61Mh83nTU1GNv-11" value="移动当前状态" style="rounded=0;whiteSpace=wrap;html=1;" parent="1" vertex="1">
          <mxGeometry x="201" y="475.60003662109375" width="120" height="60" as="geometry" />
        </mxCell>
        <mxCell id="-M9sDMD61Mh83nTU1GNv-14" style="edgeStyle=orthogonalEdgeStyle;rounded=0;orthogonalLoop=1;jettySize=auto;html=1;exitX=0;exitY=0.5;exitDx=0;exitDy=0;" parent="1" source="-M9sDMD61Mh83nTU1GNv-13" edge="1">
          <mxGeometry relative="1" as="geometry">
            <mxPoint x="263" y="231" as="targetPoint" />
            <Array as="points">
              <mxPoint x="160" y="597" />
              <mxPoint x="160" y="231" />
              <mxPoint x="263" y="231" />
            </Array>
          </mxGeometry>
        </mxCell>
        <mxCell id="-M9sDMD61Mh83nTU1GNv-13" value="对所有状态进行排序，选取估计函数值最小的作为当前状态" style="rounded=0;whiteSpace=wrap;html=1;" parent="1" vertex="1">
          <mxGeometry x="201" y="567" width="120" height="60" as="geometry" />
        </mxCell>
      </root>
    </mxGraphModel>
  </diagram>
  <diagram id="YZZbX4Yn1oQzXG3i4nOW" name="第 2 页">
    <mxGraphModel dx="1377" dy="788" grid="0" gridSize="10" guides="1" tooltips="1" connect="1" arrows="1" fold="1" page="0" pageScale="1" pageWidth="827" pageHeight="1169" math="0" shadow="0">
      <root>
        <mxCell id="0" />
        <mxCell id="1" parent="0" />
        <mxCell id="rpwzfVWQLf8sdmIeK8F4-2" style="edgeStyle=orthogonalEdgeStyle;rounded=0;orthogonalLoop=1;jettySize=auto;html=1;exitX=0.5;exitY=1;exitDx=0;exitDy=0;fontSize=16;" edge="1" parent="1" source="rpwzfVWQLf8sdmIeK8F4-1" target="rpwzfVWQLf8sdmIeK8F4-3">
          <mxGeometry relative="1" as="geometry">
            <mxPoint x="84" y="336" as="targetPoint" />
          </mxGeometry>
        </mxCell>
        <mxCell id="rpwzfVWQLf8sdmIeK8F4-1" value="开始" style="rounded=1;whiteSpace=wrap;html=1;fontSize=16;" vertex="1" parent="1">
          <mxGeometry x="24" y="212" width="120" height="60" as="geometry" />
        </mxCell>
        <mxCell id="rpwzfVWQLf8sdmIeK8F4-4" style="edgeStyle=orthogonalEdgeStyle;rounded=0;orthogonalLoop=1;jettySize=auto;html=1;exitX=0.5;exitY=1;exitDx=0;exitDy=0;fontSize=16;" edge="1" parent="1" source="rpwzfVWQLf8sdmIeK8F4-3" target="rpwzfVWQLf8sdmIeK8F4-5">
          <mxGeometry relative="1" as="geometry">
            <mxPoint x="84" y="418" as="targetPoint" />
          </mxGeometry>
        </mxCell>
        <mxCell id="rpwzfVWQLf8sdmIeK8F4-3" value="输入初始事实" style="rounded=0;whiteSpace=wrap;html=1;fontSize=16;" vertex="1" parent="1">
          <mxGeometry x="24" y="306" width="120" height="60" as="geometry" />
        </mxCell>
        <mxCell id="rpwzfVWQLf8sdmIeK8F4-7" value="" style="edgeStyle=orthogonalEdgeStyle;rounded=0;orthogonalLoop=1;jettySize=auto;html=1;fontSize=16;" edge="1" parent="1" source="rpwzfVWQLf8sdmIeK8F4-5" target="rpwzfVWQLf8sdmIeK8F4-6">
          <mxGeometry relative="1" as="geometry" />
        </mxCell>
        <mxCell id="rpwzfVWQLf8sdmIeK8F4-5" value="正向推理" style="rounded=0;whiteSpace=wrap;html=1;fontSize=16;" vertex="1" parent="1">
          <mxGeometry x="24" y="388" width="120" height="60" as="geometry" />
        </mxCell>
        <mxCell id="rpwzfVWQLf8sdmIeK8F4-8" style="edgeStyle=orthogonalEdgeStyle;rounded=0;orthogonalLoop=1;jettySize=auto;html=1;exitX=1;exitY=0.5;exitDx=0;exitDy=0;fontSize=16;" edge="1" parent="1" source="rpwzfVWQLf8sdmIeK8F4-6" target="rpwzfVWQLf8sdmIeK8F4-11">
          <mxGeometry relative="1" as="geometry">
            <mxPoint x="265" y="482" as="targetPoint" />
            <Array as="points">
              <mxPoint x="286" y="594" />
            </Array>
          </mxGeometry>
        </mxCell>
        <mxCell id="rpwzfVWQLf8sdmIeK8F4-13" style="edgeStyle=orthogonalEdgeStyle;rounded=0;orthogonalLoop=1;jettySize=auto;html=1;exitX=0.5;exitY=1;exitDx=0;exitDy=0;fontSize=16;" edge="1" parent="1" source="rpwzfVWQLf8sdmIeK8F4-6" target="rpwzfVWQLf8sdmIeK8F4-14">
          <mxGeometry relative="1" as="geometry">
            <mxPoint x="84" y="680" as="targetPoint" />
          </mxGeometry>
        </mxCell>
        <mxCell id="rpwzfVWQLf8sdmIeK8F4-6" value="是否得到结果" style="rhombus;whiteSpace=wrap;html=1;rounded=0;fontSize=16;" vertex="1" parent="1">
          <mxGeometry x="9.5" y="556" width="149" height="75" as="geometry" />
        </mxCell>
        <mxCell id="rpwzfVWQLf8sdmIeK8F4-9" value="否" style="text;html=1;align=center;verticalAlign=middle;resizable=0;points=[];autosize=1;strokeColor=none;fillColor=none;fontSize=16;" vertex="1" parent="1">
          <mxGeometry x="153.5" y="566" width="40" height="30" as="geometry" />
        </mxCell>
        <mxCell id="rpwzfVWQLf8sdmIeK8F4-12" style="edgeStyle=orthogonalEdgeStyle;rounded=0;orthogonalLoop=1;jettySize=auto;html=1;exitX=0;exitY=0.5;exitDx=0;exitDy=0;fontSize=16;" edge="1" parent="1" source="rpwzfVWQLf8sdmIeK8F4-11">
          <mxGeometry relative="1" as="geometry">
            <mxPoint x="80" y="500" as="targetPoint" />
          </mxGeometry>
        </mxCell>
        <mxCell id="rpwzfVWQLf8sdmIeK8F4-11" value="计算置信度，继续推理" style="rounded=0;whiteSpace=wrap;html=1;fontSize=16;" vertex="1" parent="1">
          <mxGeometry x="224" y="470" width="120" height="60" as="geometry" />
        </mxCell>
        <mxCell id="rpwzfVWQLf8sdmIeK8F4-16" style="edgeStyle=orthogonalEdgeStyle;rounded=0;orthogonalLoop=1;jettySize=auto;html=1;exitX=0.5;exitY=1;exitDx=0;exitDy=0;fontSize=16;" edge="1" parent="1" source="rpwzfVWQLf8sdmIeK8F4-14" target="rpwzfVWQLf8sdmIeK8F4-17">
          <mxGeometry relative="1" as="geometry">
            <mxPoint x="84" y="770" as="targetPoint" />
          </mxGeometry>
        </mxCell>
        <mxCell id="rpwzfVWQLf8sdmIeK8F4-14" value="输出结果" style="rounded=0;whiteSpace=wrap;html=1;fontSize=16;" vertex="1" parent="1">
          <mxGeometry x="24" y="670" width="120" height="60" as="geometry" />
        </mxCell>
        <mxCell id="rpwzfVWQLf8sdmIeK8F4-15" value="是" style="text;html=1;align=center;verticalAlign=middle;resizable=0;points=[];autosize=1;strokeColor=none;fillColor=none;fontSize=16;" vertex="1" parent="1">
          <mxGeometry x="80" y="618" width="40" height="30" as="geometry" />
        </mxCell>
        <mxCell id="rpwzfVWQLf8sdmIeK8F4-17" value="结束" style="rounded=1;whiteSpace=wrap;html=1;fontSize=16;" vertex="1" parent="1">
          <mxGeometry x="24" y="760" width="120" height="60" as="geometry" />
        </mxCell>
      </root>
    </mxGraphModel>
  </diagram>
  <diagram id="OzNP-wVaDRUk0wcGdTry" name="第 3 页">
    <mxGraphModel dx="977" dy="388" grid="0" gridSize="10" guides="1" tooltips="1" connect="1" arrows="1" fold="1" page="0" pageScale="1" pageWidth="827" pageHeight="1169" math="0" shadow="0">
      <root>
        <mxCell id="0" />
        <mxCell id="1" parent="0" />
        <mxCell id="ZMQK9waiaWderTFRxZnz-1" value="种子无果皮" style="rounded=0;whiteSpace=wrap;html=1;" vertex="1" parent="1">
          <mxGeometry x="780" y="566" width="120" height="60" as="geometry" />
        </mxCell>
        <mxCell id="ZMQK9waiaWderTFRxZnz-2" value="种子有果皮" style="rounded=0;whiteSpace=wrap;html=1;" vertex="1" parent="1">
          <mxGeometry x="1270" y="560" width="120" height="60" as="geometry" />
        </mxCell>
        <mxCell id="ZMQK9waiaWderTFRxZnz-3" value="" style="endArrow=classic;html=1;rounded=0;exitX=0.5;exitY=1;exitDx=0;exitDy=0;" edge="1" parent="1" source="ZMQK9waiaWderTFRxZnz-1" target="ZMQK9waiaWderTFRxZnz-5">
          <mxGeometry width="50" height="50" relative="1" as="geometry">
            <mxPoint x="786" y="755" as="sourcePoint" />
            <mxPoint x="840" y="700" as="targetPoint" />
          </mxGeometry>
        </mxCell>
        <mxCell id="ZMQK9waiaWderTFRxZnz-4" value="" style="endArrow=classic;html=1;rounded=0;exitX=0.5;exitY=1;exitDx=0;exitDy=0;" edge="1" parent="1" source="ZMQK9waiaWderTFRxZnz-2" target="ZMQK9waiaWderTFRxZnz-6">
          <mxGeometry width="50" height="50" relative="1" as="geometry">
            <mxPoint x="1030" y="630" as="sourcePoint" />
            <mxPoint x="1330" y="694" as="targetPoint" />
          </mxGeometry>
        </mxCell>
        <mxCell id="ZMQK9waiaWderTFRxZnz-5" value="裸子植物" style="rounded=0;whiteSpace=wrap;html=1;" vertex="1" parent="1">
          <mxGeometry x="780" y="670" width="120" height="60" as="geometry" />
        </mxCell>
        <mxCell id="ZMQK9waiaWderTFRxZnz-6" value="被子植物" style="rounded=0;whiteSpace=wrap;html=1;" vertex="1" parent="1">
          <mxGeometry x="1270" y="664" width="120" height="60" as="geometry" />
        </mxCell>
        <mxCell id="ZMQK9waiaWderTFRxZnz-7" value="" style="endArrow=classic;html=1;rounded=0;exitX=0.5;exitY=1;exitDx=0;exitDy=0;" edge="1" parent="1" source="ZMQK9waiaWderTFRxZnz-5" target="ZMQK9waiaWderTFRxZnz-11">
          <mxGeometry width="50" height="50" relative="1" as="geometry">
            <mxPoint x="1050" y="810" as="sourcePoint" />
            <mxPoint x="720" y="840" as="targetPoint" />
          </mxGeometry>
        </mxCell>
        <mxCell id="ZMQK9waiaWderTFRxZnz-8" value="" style="endArrow=classic;html=1;rounded=0;exitX=0.5;exitY=1;exitDx=0;exitDy=0;" edge="1" parent="1" source="ZMQK9waiaWderTFRxZnz-5" target="ZMQK9waiaWderTFRxZnz-12">
          <mxGeometry width="50" height="50" relative="1" as="geometry">
            <mxPoint x="1050" y="810" as="sourcePoint" />
            <mxPoint x="840" y="840" as="targetPoint" />
          </mxGeometry>
        </mxCell>
        <mxCell id="ZMQK9waiaWderTFRxZnz-10" value="" style="endArrow=classic;html=1;rounded=0;exitX=0.5;exitY=1;exitDx=0;exitDy=0;" edge="1" parent="1" source="ZMQK9waiaWderTFRxZnz-5" target="ZMQK9waiaWderTFRxZnz-13">
          <mxGeometry width="50" height="50" relative="1" as="geometry">
            <mxPoint x="1050" y="810" as="sourcePoint" />
            <mxPoint x="960" y="840" as="targetPoint" />
          </mxGeometry>
        </mxCell>
        <mxCell id="ZMQK9waiaWderTFRxZnz-11" value="银杏" style="rounded=0;whiteSpace=wrap;html=1;" vertex="1" parent="1">
          <mxGeometry x="630" y="840" width="120" height="60" as="geometry" />
        </mxCell>
        <mxCell id="ZMQK9waiaWderTFRxZnz-12" value="红豆杉" style="rounded=0;whiteSpace=wrap;html=1;" vertex="1" parent="1">
          <mxGeometry x="780" y="840" width="120" height="60" as="geometry" />
        </mxCell>
        <mxCell id="ZMQK9waiaWderTFRxZnz-13" value="云杉" style="rounded=0;whiteSpace=wrap;html=1;" vertex="1" parent="1">
          <mxGeometry x="930" y="840" width="120" height="60" as="geometry" />
        </mxCell>
        <mxCell id="ZMQK9waiaWderTFRxZnz-14" value="种子球形" style="rounded=0;whiteSpace=wrap;html=1;" vertex="1" parent="1">
          <mxGeometry x="740" y="980" width="120" height="60" as="geometry" />
        </mxCell>
        <mxCell id="ZMQK9waiaWderTFRxZnz-16" value="" style="endArrow=classic;html=1;rounded=0;entryX=0.5;entryY=1;entryDx=0;entryDy=0;exitX=0.5;exitY=0;exitDx=0;exitDy=0;" edge="1" parent="1" source="ZMQK9waiaWderTFRxZnz-14" target="ZMQK9waiaWderTFRxZnz-11">
          <mxGeometry width="50" height="50" relative="1" as="geometry">
            <mxPoint x="750" y="980" as="sourcePoint" />
            <mxPoint x="800" y="940" as="targetPoint" />
          </mxGeometry>
        </mxCell>
        <mxCell id="ZMQK9waiaWderTFRxZnz-17" value="" style="endArrow=classic;html=1;rounded=0;exitX=0.5;exitY=0;exitDx=0;exitDy=0;entryX=0.5;entryY=1;entryDx=0;entryDy=0;" edge="1" parent="1" source="ZMQK9waiaWderTFRxZnz-14" target="ZMQK9waiaWderTFRxZnz-12">
          <mxGeometry width="50" height="50" relative="1" as="geometry">
            <mxPoint x="1050" y="910" as="sourcePoint" />
            <mxPoint x="1100" y="860" as="targetPoint" />
          </mxGeometry>
        </mxCell>
        <mxCell id="ZMQK9waiaWderTFRxZnz-18" value="种子倒卵形" style="rounded=0;whiteSpace=wrap;html=1;" vertex="1" parent="1">
          <mxGeometry x="1040" y="980" width="120" height="60" as="geometry" />
        </mxCell>
        <mxCell id="ZMQK9waiaWderTFRxZnz-19" value="" style="endArrow=classic;html=1;rounded=0;exitX=0.5;exitY=0;exitDx=0;exitDy=0;entryX=0.5;entryY=1;entryDx=0;entryDy=0;" edge="1" parent="1" source="ZMQK9waiaWderTFRxZnz-18" target="ZMQK9waiaWderTFRxZnz-13">
          <mxGeometry width="50" height="50" relative="1" as="geometry">
            <mxPoint x="1050" y="910" as="sourcePoint" />
            <mxPoint x="1100" y="860" as="targetPoint" />
          </mxGeometry>
        </mxCell>
        <mxCell id="ZMQK9waiaWderTFRxZnz-20" value="雌雄异株" style="rounded=0;whiteSpace=wrap;html=1;" vertex="1" parent="1">
          <mxGeometry x="600" y="980" width="120" height="60" as="geometry" />
        </mxCell>
        <mxCell id="ZMQK9waiaWderTFRxZnz-21" value="" style="endArrow=classic;html=1;rounded=0;exitX=0.5;exitY=0;exitDx=0;exitDy=0;entryX=0.5;entryY=1;entryDx=0;entryDy=0;" edge="1" parent="1" source="ZMQK9waiaWderTFRxZnz-20" target="ZMQK9waiaWderTFRxZnz-13">
          <mxGeometry width="50" height="50" relative="1" as="geometry">
            <mxPoint x="1050" y="910" as="sourcePoint" />
            <mxPoint x="1100" y="860" as="targetPoint" />
          </mxGeometry>
        </mxCell>
        <mxCell id="ZMQK9waiaWderTFRxZnz-22" value="" style="endArrow=classic;html=1;rounded=0;exitX=0.5;exitY=0;exitDx=0;exitDy=0;entryX=0.5;entryY=1;entryDx=0;entryDy=0;" edge="1" parent="1" source="ZMQK9waiaWderTFRxZnz-20" target="ZMQK9waiaWderTFRxZnz-11">
          <mxGeometry width="50" height="50" relative="1" as="geometry">
            <mxPoint x="1050" y="910" as="sourcePoint" />
            <mxPoint x="1100" y="860" as="targetPoint" />
          </mxGeometry>
        </mxCell>
        <mxCell id="ZMQK9waiaWderTFRxZnz-23" value="雌雄同株" style="rounded=0;whiteSpace=wrap;html=1;" vertex="1" parent="1">
          <mxGeometry x="890" y="980" width="120" height="60" as="geometry" />
        </mxCell>
        <mxCell id="ZMQK9waiaWderTFRxZnz-24" value="" style="endArrow=classic;html=1;rounded=0;exitX=0.5;exitY=0;exitDx=0;exitDy=0;entryX=0.5;entryY=1;entryDx=0;entryDy=0;" edge="1" parent="1" source="ZMQK9waiaWderTFRxZnz-23" target="ZMQK9waiaWderTFRxZnz-12">
          <mxGeometry width="50" height="50" relative="1" as="geometry">
            <mxPoint x="1050" y="910" as="sourcePoint" />
            <mxPoint x="1100" y="860" as="targetPoint" />
          </mxGeometry>
        </mxCell>
        <mxCell id="ZMQK9waiaWderTFRxZnz-25" value="花基有鳞片" style="rounded=0;whiteSpace=wrap;html=1;" vertex="1" parent="1">
          <mxGeometry x="1010" y="710" width="120" height="60" as="geometry" />
        </mxCell>
        <mxCell id="ZMQK9waiaWderTFRxZnz-26" value="" style="endArrow=classic;html=1;rounded=0;exitX=0.5;exitY=1;exitDx=0;exitDy=0;entryX=0.5;entryY=0;entryDx=0;entryDy=0;" edge="1" parent="1" source="ZMQK9waiaWderTFRxZnz-25" target="ZMQK9waiaWderTFRxZnz-12">
          <mxGeometry width="50" height="50" relative="1" as="geometry">
            <mxPoint x="1200" y="910" as="sourcePoint" />
            <mxPoint x="1250" y="860" as="targetPoint" />
          </mxGeometry>
        </mxCell>
        <mxCell id="ZMQK9waiaWderTFRxZnz-27" value="叶片扇形" style="rounded=0;whiteSpace=wrap;html=1;" vertex="1" parent="1">
          <mxGeometry x="580" y="730" width="120" height="60" as="geometry" />
        </mxCell>
        <mxCell id="ZMQK9waiaWderTFRxZnz-28" value="" style="endArrow=classic;html=1;rounded=0;exitX=0.5;exitY=1;exitDx=0;exitDy=0;entryX=0.5;entryY=0;entryDx=0;entryDy=0;" edge="1" parent="1" source="ZMQK9waiaWderTFRxZnz-27" target="ZMQK9waiaWderTFRxZnz-11">
          <mxGeometry width="50" height="50" relative="1" as="geometry">
            <mxPoint x="550" y="880" as="sourcePoint" />
            <mxPoint x="600" y="830" as="targetPoint" />
          </mxGeometry>
        </mxCell>
        <mxCell id="ZMQK9waiaWderTFRxZnz-29" value="桃树" style="rounded=0;whiteSpace=wrap;html=1;" vertex="1" parent="1">
          <mxGeometry x="1190" y="840" width="120" height="60" as="geometry" />
        </mxCell>
        <mxCell id="ZMQK9waiaWderTFRxZnz-30" value="菊花" style="rounded=0;whiteSpace=wrap;html=1;" vertex="1" parent="1">
          <mxGeometry x="1380" y="840" width="120" height="60" as="geometry" />
        </mxCell>
        <mxCell id="ZMQK9waiaWderTFRxZnz-31" value="" style="endArrow=classic;html=1;rounded=0;exitX=0.5;exitY=1;exitDx=0;exitDy=0;entryX=0.5;entryY=0;entryDx=0;entryDy=0;" edge="1" parent="1" source="ZMQK9waiaWderTFRxZnz-6" target="ZMQK9waiaWderTFRxZnz-29">
          <mxGeometry width="50" height="50" relative="1" as="geometry">
            <mxPoint x="1240" y="830" as="sourcePoint" />
            <mxPoint x="1290" y="780" as="targetPoint" />
          </mxGeometry>
        </mxCell>
        <mxCell id="ZMQK9waiaWderTFRxZnz-32" value="" style="endArrow=classic;html=1;rounded=0;exitX=0.5;exitY=1;exitDx=0;exitDy=0;entryX=0.5;entryY=0;entryDx=0;entryDy=0;" edge="1" parent="1" source="ZMQK9waiaWderTFRxZnz-6" target="ZMQK9waiaWderTFRxZnz-30">
          <mxGeometry width="50" height="50" relative="1" as="geometry">
            <mxPoint x="1400" y="800" as="sourcePoint" />
            <mxPoint x="1450" y="750" as="targetPoint" />
          </mxGeometry>
        </mxCell>
        <mxCell id="ZMQK9waiaWderTFRxZnz-33" value="花粉色" style="rounded=0;whiteSpace=wrap;html=1;" vertex="1" parent="1">
          <mxGeometry x="1230" y="980" width="120" height="60" as="geometry" />
        </mxCell>
        <mxCell id="ZMQK9waiaWderTFRxZnz-34" value="" style="endArrow=classic;html=1;rounded=0;exitX=0.5;exitY=0;exitDx=0;exitDy=0;entryX=0.5;entryY=1;entryDx=0;entryDy=0;" edge="1" parent="1" source="ZMQK9waiaWderTFRxZnz-33" target="ZMQK9waiaWderTFRxZnz-29">
          <mxGeometry width="50" height="50" relative="1" as="geometry">
            <mxPoint x="1270" y="970" as="sourcePoint" />
            <mxPoint x="1320" y="920" as="targetPoint" />
          </mxGeometry>
        </mxCell>
        <mxCell id="ZMQK9waiaWderTFRxZnz-35" value="花黄色" style="rounded=0;whiteSpace=wrap;html=1;" vertex="1" parent="1">
          <mxGeometry x="1410" y="980" width="120" height="60" as="geometry" />
        </mxCell>
        <mxCell id="ZMQK9waiaWderTFRxZnz-36" value="" style="endArrow=classic;html=1;rounded=0;exitX=0.5;exitY=0;exitDx=0;exitDy=0;entryX=0.5;entryY=1;entryDx=0;entryDy=0;" edge="1" parent="1" source="ZMQK9waiaWderTFRxZnz-35" target="ZMQK9waiaWderTFRxZnz-30">
          <mxGeometry width="50" height="50" relative="1" as="geometry">
            <mxPoint x="1460" y="980" as="sourcePoint" />
            <mxPoint x="1510" y="930" as="targetPoint" />
          </mxGeometry>
        </mxCell>
        <mxCell id="ZMQK9waiaWderTFRxZnz-37" value="" style="endArrow=classic;html=1;rounded=0;entryX=0.5;entryY=0;entryDx=0;entryDy=0;" edge="1" parent="1" target="ZMQK9waiaWderTFRxZnz-29">
          <mxGeometry width="50" height="50" relative="1" as="geometry">
            <mxPoint x="1070" y="770" as="sourcePoint" />
            <mxPoint x="1150" y="800" as="targetPoint" />
          </mxGeometry>
        </mxCell>
        <mxCell id="ZMQK9waiaWderTFRxZnz-39" value="表面光滑" style="rounded=0;whiteSpace=wrap;html=1;" vertex="1" parent="1">
          <mxGeometry x="1510" y="724" width="120" height="60" as="geometry" />
        </mxCell>
        <mxCell id="ZMQK9waiaWderTFRxZnz-40" value="" style="endArrow=classic;html=1;rounded=0;exitX=0.5;exitY=1;exitDx=0;exitDy=0;entryX=0.5;entryY=0;entryDx=0;entryDy=0;" edge="1" parent="1" source="ZMQK9waiaWderTFRxZnz-39" target="ZMQK9waiaWderTFRxZnz-30">
          <mxGeometry width="50" height="50" relative="1" as="geometry">
            <mxPoint x="1580" y="890" as="sourcePoint" />
            <mxPoint x="1630" y="840" as="targetPoint" />
          </mxGeometry>
        </mxCell>
      </root>
    </mxGraphModel>
  </diagram>
  <diagram id="k6W6LZpataqC5tZf1viy" name="第 4 页">
    <mxGraphModel dx="1379" dy="788" grid="1" gridSize="10" guides="1" tooltips="1" connect="1" arrows="1" fold="1" page="1" pageScale="1" pageWidth="827" pageHeight="1169" math="0" shadow="0">
      <root>
        <mxCell id="0" />
        <mxCell id="1" parent="0" />
        <mxCell id="X5wqirZiqqEZROuigeem-1" value="" style="rounded=0;whiteSpace=wrap;html=1;" vertex="1" parent="1">
          <mxGeometry x="230" y="210" width="120" height="60" as="geometry" />
        </mxCell>
        <mxCell id="X5wqirZiqqEZROuigeem-2" value="" style="endArrow=none;html=1;rounded=0;exitX=1;exitY=0;exitDx=0;exitDy=0;" edge="1" parent="1" source="X5wqirZiqqEZROuigeem-1">
          <mxGeometry width="50" height="50" relative="1" as="geometry">
            <mxPoint x="390" y="430" as="sourcePoint" />
            <mxPoint x="550" y="210" as="targetPoint" />
          </mxGeometry>
        </mxCell>
        <mxCell id="X5wqirZiqqEZROuigeem-3" value="" style="endArrow=none;html=1;rounded=0;exitX=1;exitY=1;exitDx=0;exitDy=0;" edge="1" parent="1" source="X5wqirZiqqEZROuigeem-1">
          <mxGeometry width="50" height="50" relative="1" as="geometry">
            <mxPoint x="400" y="300" as="sourcePoint" />
            <mxPoint x="550" y="270" as="targetPoint" />
          </mxGeometry>
        </mxCell>
      </root>
    </mxGraphModel>
  </diagram>
</mxfile>
